<?xml version="1.0" encoding="UTF-8"?>
<!-- Generator: Adobe Illustrator 19.2.1, SVG Export Plug-In . SVG Version: 6.00 Build 0)  -->
<svg version="1.1" id="Layer_1" xmlns="http://www.w3.org/2000/svg" xmlns:xlink="http://www.w3.org/1999/xlink" x="0px" y="0px" viewBox="0 0 130.8 130.8" style="enable-background:new 0 0 130.8 130.8;" xml:space="preserve">
<style type="text/css">
	.st0{fill:#C72128;}
</style>
<path class="st0" d="M65.4,0C29.3,0,0,29.3,0,65.4c0,36.1,29.3,65.4,65.4,65.4c36.1,0,65.4-29.3,65.4-65.4  C130.8,29.3,101.5,0,65.4,0z M64.8,28.8c1.5,0,2.6,0.5,3.7,1.5c4.8,4.8,9.7,9.6,14.5,14.4c-5.4,5.3-10.8,10.7-16.1,16  C56.2,50.1,45.5,39.5,34.8,28.8H64.8z M68.9,98.4c-1.1,1.1-2.2,1.5-3.7,1.5H35.1c17.2-17.1,34.4-34.3,51.7-51.4  c5.4,5.3,10.7,10.7,16.1,16C91.5,75.9,80.2,87.2,68.9,98.4z"/>
</svg>